<?xml version="1.0" encoding="utf-8"?>
<!-- Generator: Adobe Illustrator 26.2.1, SVG Export Plug-In . SVG Version: 6.00 Build 0)  -->
<svg version="1.1" id="Calque_1" xmlns="http://www.w3.org/2000/svg" xmlns:xlink="http://www.w3.org/1999/xlink" x="0px" y="0px"
	 viewBox="0 0 1350 1080" style="enable-background:new 0 0 1350 1080;" xml:space="preserve">
<style type="text/css">
	.st0{fill:#FFFFFF;}
	.st1{fill:none;stroke:#1D1D1B;stroke-width:0.2661;stroke-miterlimit:10;}
	.st2{fill:#FE0000;}
</style>
<g>
	<path class="st0" d="M289.2,169.8v711.1h-76.1L213,417.2l-30.3,463.7h-53.9L96.9,422.3l-0.1,458.5H20.7V169.8h112.6
		c3.3,20.1,6.8,43.8,10.3,71.1L156,326l20-156.2H289.2z"/>
	<path class="st0" d="M522.9,365.7c0,33.6-0.8,57.4-2.4,71.4c-1.6,14-6.5,26.8-14.9,38.3c-8.3,11.6-19.6,20.5-33.8,26.7
		c-14.2,6.2-30.7,9.3-49.6,9.3c-17.9,0-34-2.9-48.3-8.8c-14.3-5.9-25.7-14.6-34.4-26.3c-8.7-11.7-13.8-24.5-15.5-38.2
		c-1.7-13.8-2.5-37.9-2.5-72.3v-57.2c0-33.6,0.8-57.4,2.4-71.4c1.6-14,6.5-26.8,14.9-38.3c8.3-11.6,19.6-20.5,33.8-26.7
		c14.2-6.2,30.7-9.3,49.6-9.3c17.9,0,34,2.9,48.3,8.8c14.3,5.9,25.7,14.6,34.4,26.3c8.7,11.7,13.8,24.5,15.5,38.2
		c1.7,13.8,2.5,37.9,2.5,72.3V365.7z M435.9,255.7c0-15.6-0.9-25.5-2.6-29.9c-1.7-4.3-5.3-6.5-10.6-6.5c-4.5,0-8,1.8-10.4,5.3
		c-2.4,3.5-3.6,13.9-3.6,31.1V412c0,19.4,0.8,31.4,2.4,36c1.6,4.5,5.3,6.8,11.1,6.8c5.9,0,9.7-2.6,11.4-7.9
		c1.7-5.2,2.5-17.7,2.5-37.4V255.7z"/>
	<path class="st0" d="M762.2,169.8l-44.3,334.6H585.8l-50.3-334.6h91.8c10.7,92.2,18.3,170.1,22.8,233.9
		c4.5-64.5,9.3-121.7,14.3-171.7l6-62.2H762.2z"/>
	<path class="st0" d="M863.9,169.8v711.1h-87V169.8H863.9z"/>
	<path class="st0" d="M1093.1,169.8v334.6h-76.3l-45.3-152.1v152.1h-72.7V169.8h72.7l48.8,150.7V169.8H1093.1z"/>
	<path class="st0" d="M1327.6,292.9h-87v-30.4c0-19.1-0.8-31.1-2.5-36c-1.7-4.8-5.6-7.2-11.8-7.2c-5.4,0-9,2.1-11,6.2
		c-1.9,4.1-2.9,14.7-2.9,31.8V418c0,15,1,24.9,2.9,29.7c1.9,4.8,5.8,7.1,11.6,7.1c6.3,0,10.6-2.7,12.9-8.1
		c2.3-5.4,3.4-15.8,3.4-31.4v-39.7h-17.6v-50.8h101.9v179.6H1273l-8-24c-5.9,10.3-13.4,18.1-22.4,23.2c-9,5.2-19.7,7.7-32,7.7
		c-14.6,0-28.3-3.5-41.1-10.6c-12.8-7.1-22.4-15.9-29.1-26.3c-6.6-10.5-10.8-21.5-12.4-33c-1.7-11.5-2.5-28.8-2.5-51.8v-99.4
		c0-32,1.7-55.2,5.2-69.6c3.4-14.5,13.3-27.7,29.7-39.8c16.3-12.1,37.4-18.1,63.3-18.1c25.5,0,46.6,5.2,63.4,15.7
		c16.8,10.5,27.8,22.9,32.9,37.3c5.1,14.4,7.6,35.3,7.6,62.7V292.9z"/>
</g>
<g>
	<path class="st0" d="M522.4,539.2v223.7c0,25.4-0.8,43.2-2.5,53.4c-1.7,10.3-6.5,20.8-14.7,31.6c-8.1,10.8-18.8,19-32.1,24.6
		c-13.3,5.6-29,8.4-47,8.4c-20,0-37.6-3.3-52.9-9.9c-15.3-6.6-26.7-15.2-34.3-25.8c-7.6-10.6-12.1-21.8-13.4-33.6
		c-1.4-11.8-2.1-36.6-2.1-74.3v-198h87v251c0,14.6,0.8,23.9,2.4,28c1.6,4.1,4.8,6.1,9.6,6.1c5.5,0,9.1-2.2,10.6-6.7
		c1.6-4.5,2.4-15.1,2.4-31.7V539.2H522.4z"/>
	<path class="st0" d="M740.5,640.4h-80.8v-24.8c0-11.6-1-18.9-3.1-22.1c-2.1-3.2-5.5-4.8-10.3-4.8c-5.2,0-9.2,2.1-11.9,6.4
		c-2.7,4.3-4,10.8-4,19.4c0,11.2,1.5,19.6,4.5,25.2c2.9,5.7,11.1,12.5,24.6,20.5c38.7,23,63.1,41.9,73.2,56.6
		c10.1,14.7,15.1,38.5,15.1,71.3c0,23.8-2.8,41.4-8.4,52.7c-5.6,11.3-16.4,20.8-32.4,28.4c-16,7.6-34.6,11.5-55.8,11.5
		c-23.3,0-43.2-4.4-59.6-13.2c-16.5-8.8-27.3-20.1-32.4-33.7c-5.1-13.6-7.6-33-7.6-58.1v-21.9h80.8v40.7c0,12.5,1.1,20.6,3.4,24.2
		c2.3,3.6,6.3,5.4,12.1,5.4c5.8,0,10.1-2.3,12.9-6.8c2.8-4.5,4.2-11.3,4.2-20.3c0-19.7-2.7-32.6-8.1-38.7
		c-5.5-6.1-19.1-16.2-40.7-30.4c-21.6-14.3-36-24.7-43-31.2c-7-6.5-12.9-15.4-17.5-26.9c-4.6-11.4-6.9-26-6.9-43.8
		c0-25.6,3.3-44.4,9.8-56.2c6.5-11.9,17.1-21.1,31.7-27.8c14.6-6.7,32.2-10,52.9-10c22.6,0,41.9,3.7,57.8,11
		c15.9,7.3,26.5,16.5,31.6,27.6c5.2,11.1,7.8,29.9,7.8,56.5V640.4z"/>
</g>
<line class="st1" x1="-14.9" y1="880.9" x2="863.2" y2="880.9"/>
<g>
	<path class="st0" d="M1093.1,665.3h-81.8v-38.8c0-13.5-0.9-22.7-2.8-27.5c-1.9-4.8-5.3-7.2-10.3-7.2c-5,0-8.4,2.1-10.1,6.3
		c-1.7,4.2-2.6,13.7-2.6,28.4v158.7c0,12,1.3,21,3.9,27c2.6,6,6.4,9,11.4,9c5.9,0,9.8-3.1,11.9-9.4c2.1-6.3,3.1-18.1,3.1-35.5v-40.1
		h77.3c-0.1,26.9-1,47-2.5,60.5c-1.5,13.4-6.3,27.2-14.4,41.3c-8.1,14.1-18.6,24.8-31.7,31.9c-13,7.2-29.1,10.8-48.3,10.8
		c-24.5,0-43.9-4.9-58.2-14.8c-14.3-9.9-24.4-23.7-30.4-41.6c-5.9-17.8-8.9-43.1-8.9-75.9v-95.6c0-28.6,2.4-50.1,7.3-64.7
		c4.9-14.5,15.2-27.5,31.1-38.9s35.2-17.1,58-17.1c22.6,0,41.9,5.7,58,17c16,11.3,26.7,25.6,32,42.9
		C1090.4,609.3,1093.1,633.7,1093.1,665.3z"/>
</g>
<g>
	<path class="st2" d="M1171,782.8h-45.4v-10.7c0-12.3,1.4-21.8,4.3-28.5c2.8-6.7,8.5-12.6,17.1-17.7c8.5-5.1,19.7-7.7,33.3-7.7
		c16.4,0,28.7,2.9,37,8.7c8.3,5.8,13.3,12.9,15,21.3c1.7,8.4,2.5,25.8,2.5,52.1v79.8h-47.1v-14.2c-3,5.7-6.8,9.9-11.4,12.8
		c-4.7,2.8-10.2,4.3-16.7,4.3c-8.5,0-16.2-2.4-23.3-7.1s-10.6-15.2-10.6-31.2v-13.1c0-11.9,1.9-20,5.6-24.3
		c3.8-4.3,13.1-9.3,27.9-15.1c15.9-6.2,24.4-10.4,25.5-12.6c1.1-2.2,1.7-6.6,1.7-13.2c0-8.3-0.6-13.7-1.9-16.2
		c-1.2-2.5-3.3-3.8-6.2-3.8c-3.3,0-5.3,1.1-6.1,3.2c-0.8,2.1-1.2,7.6-1.2,16.5V782.8z M1186.3,804.6c-7.8,5.7-12.2,10.4-13.5,14.3
		c-1.2,3.8-1.9,9.3-1.9,16.5c0,8.2,0.5,13.5,1.6,15.9c1.1,2.4,3.2,3.6,6.4,3.6c3,0,5-0.9,5.9-2.8c0.9-1.9,1.4-6.8,1.4-14.8V804.6z"
		/>
	<path class="st2" d="M1299.8,721.2l-1.9,20.9c7-15,17.2-22.9,30.6-23.8v56c-8.9,0-15.4,1.2-19.5,3.6c-4.2,2.4-6.7,5.7-7.7,10
		c-1,4.3-1.4,14.1-1.4,29.5v62.8h-48.4V721.2H1299.8z"/>
</g>
<path class="st2" d="M848,143.4h-55.3c-8.8,0-15.9-7.1-15.9-15.9v-15.5c0-8.8,7.1-15.9,15.9-15.9H848c8.8,0,15.9,7.1,15.9,15.9v15.5
	C863.9,136.3,856.8,143.4,848,143.4z"/>
</svg>
